{
	"asset":{
		"generator":"Khronos glTF Blender I/O v4.2.60",
		"version":"2.0"
	},
	"extensionsUsed":[
		"KHR_materials_unlit"
	],
	"scene":0,
	"scenes":[
		{
			"name":"Scene",
			"nodes":[
				21
			]
		}
	],
	"nodes":[
		{
			"mesh":0,
			"name":"Body_Body_0"
		},
		{
			"mesh":1,
			"name":"Body_Eye_0"
		},
		{
			"mesh":2,
			"name":"Body_Skin_0"
		},
		{
			"children":[
				0,
				1,
				2
			],
			"name":"Body"
		},
		{
			"mesh":3,
			"name":"Body.outline_Outline_0"
		},
		{
			"children":[
				4
			],
			"name":"Body.outline"
		},
		{
			"mesh":4,
			"name":"Hair_Hair2_0"
		},
		{
			"mesh":5,
			"name":"Hair_Hair_0"
		},
		{
			"children":[
				6,
				7
			],
			"name":"Hair"
		},
		{
			"mesh":6,
			"name":"Hair.outline_Outline_0"
		},
		{
			"children":[
				9
			],
			"name":"Hair.outline"
		},
		{
			"mesh":7,
			"name":"skin_Body2_0"
		},
		{
			"mesh":8,
			"name":"skin_Body2Shade_0"
		},
		{
			"mesh":9,
			"name":"skin_Body_0"
		},
		{
			"mesh":10,
			"name":"skin_BosyShade_0"
		},
		{
			"mesh":11,
			"name":"skin_Lens_0"
		},
		{
			"children":[
				11,
				12,
				13,
				14,
				15
			],
			"name":"skin"
		},
		{
			"mesh":12,
			"name":"skin.outline_Outline_0"
		},
		{
			"children":[
				17
			],
			"name":"skin.outline"
		},
		{
			"children":[
				3,
				5,
				8,
				10,
				16,
				18
			],
			"name":"RootNode"
		},
		{
			"children":[
				19
			],
			"name":"df157774cd6a4f048c26da049f0de100.fbx"
		},
		{
			"children":[
				20
			],
			"name":"Sketchfab_model",
			"translation":[
				-0.0029825991950929165,
				-0.028071003034710884,
				0.00015470641665160656
			]
		}
	],
	"materials":[
		{
			"doubleSided":true,
			"extensions":{
				"KHR_materials_unlit":{}
			},
			"name":"Body",
			"pbrMetallicRoughness":{
				"baseColorTexture":{
					"index":0
				},
				"metallicFactor":0,
				"roughnessFactor":0.9
			}
		},
		{
			"alphaMode":"BLEND",
			"doubleSided":true,
			"extensions":{
				"KHR_materials_unlit":{}
			},
			"name":"material",
			"pbrMetallicRoughness":{
				"baseColorTexture":{
					"index":1
				},
				"metallicFactor":0,
				"roughnessFactor":0.9
			}
		},
		{
			"doubleSided":true,
			"extensions":{
				"KHR_materials_unlit":{}
			},
			"name":"Skin",
			"pbrMetallicRoughness":{
				"baseColorTexture":{
					"index":2
				},
				"metallicFactor":0,
				"roughnessFactor":0.9
			}
		},
		{
			"extensions":{
				"KHR_materials_unlit":{}
			},
			"name":"Outline",
			"pbrMetallicRoughness":{
				"baseColorFactor":[
					0,
					0,
					0,
					1
				],
				"metallicFactor":0,
				"roughnessFactor":0.9
			}
		},
		{
			"doubleSided":true,
			"extensions":{
				"KHR_materials_unlit":{}
			},
			"name":"Hair2",
			"pbrMetallicRoughness":{
				"baseColorTexture":{
					"index":3
				},
				"metallicFactor":0,
				"roughnessFactor":0.9
			}
		},
		{
			"doubleSided":true,
			"extensions":{
				"KHR_materials_unlit":{}
			},
			"name":"Hair",
			"pbrMetallicRoughness":{
				"baseColorTexture":{
					"index":4
				},
				"metallicFactor":0,
				"roughnessFactor":0.9
			}
		},
		{
			"doubleSided":true,
			"extensions":{
				"KHR_materials_unlit":{}
			},
			"name":"Body2",
			"pbrMetallicRoughness":{
				"baseColorTexture":{
					"index":5
				},
				"metallicFactor":0,
				"roughnessFactor":0.9
			}
		},
		{
			"doubleSided":true,
			"extensions":{
				"KHR_materials_unlit":{}
			},
			"name":"Body2Shade",
			"pbrMetallicRoughness":{
				"baseColorTexture":{
					"index":6
				},
				"metallicFactor":0,
				"roughnessFactor":0.9
			}
		},
		{
			"doubleSided":true,
			"extensions":{
				"KHR_materials_unlit":{}
			},
			"name":"BosyShade",
			"pbrMetallicRoughness":{
				"baseColorTexture":{
					"index":7
				},
				"metallicFactor":0,
				"roughnessFactor":0.9
			}
		},
		{
			"doubleSided":true,
			"extensions":{
				"KHR_materials_unlit":{}
			},
			"name":"Lens",
			"pbrMetallicRoughness":{
				"baseColorTexture":{
					"index":8
				},
				"metallicFactor":0,
				"roughnessFactor":0.9
			}
		}
	],
	"meshes":[
		{
			"name":"Body_Body_0",
			"primitives":[
				{
					"attributes":{
						"POSITION":0,
						"NORMAL":1,
						"TEXCOORD_0":2,
						"TEXCOORD_1":3
					},
					"indices":4,
					"material":0
				}
			]
		},
		{
			"name":"Body_Eye_0",
			"primitives":[
				{
					"attributes":{
						"POSITION":5,
						"NORMAL":6,
						"TEXCOORD_0":7,
						"TEXCOORD_1":8
					},
					"indices":9,
					"material":1
				}
			]
		},
		{
			"name":"Body_Skin_0",
			"primitives":[
				{
					"attributes":{
						"POSITION":10,
						"NORMAL":11,
						"TEXCOORD_0":12,
						"TEXCOORD_1":13
					},
					"indices":14,
					"material":2
				}
			]
		},
		{
			"name":"Body.outline_Outline_0",
			"primitives":[
				{
					"attributes":{
						"POSITION":15,
						"NORMAL":16,
						"TEXCOORD_0":17,
						"TEXCOORD_1":18
					},
					"indices":19,
					"material":3
				}
			]
		},
		{
			"name":"Hair_Hair2_0",
			"primitives":[
				{
					"attributes":{
						"POSITION":20,
						"NORMAL":21,
						"TEXCOORD_0":22
					},
					"indices":23,
					"material":4
				}
			]
		},
		{
			"name":"Hair_Hair_0",
			"primitives":[
				{
					"attributes":{
						"POSITION":24,
						"NORMAL":25,
						"TEXCOORD_0":26
					},
					"indices":27,
					"material":5
				}
			]
		},
		{
			"name":"Hair.outline_Outline_0",
			"primitives":[
				{
					"attributes":{
						"POSITION":28,
						"NORMAL":29,
						"TEXCOORD_0":30
					},
					"indices":31,
					"material":3
				}
			]
		},
		{
			"name":"skin_Body2_0",
			"primitives":[
				{
					"attributes":{
						"POSITION":32,
						"NORMAL":33,
						"TEXCOORD_0":34,
						"TEXCOORD_1":35
					},
					"indices":36,
					"material":6
				}
			]
		},
		{
			"name":"skin_Body2Shade_0",
			"primitives":[
				{
					"attributes":{
						"POSITION":37,
						"NORMAL":38,
						"TEXCOORD_0":39,
						"TEXCOORD_1":40
					},
					"indices":41,
					"material":7
				}
			]
		},
		{
			"name":"skin_Body_0",
			"primitives":[
				{
					"attributes":{
						"POSITION":42,
						"NORMAL":43,
						"TEXCOORD_0":44,
						"TEXCOORD_1":45
					},
					"indices":46,
					"material":0
				}
			]
		},
		{
			"name":"skin_BosyShade_0",
			"primitives":[
				{
					"attributes":{
						"POSITION":47,
						"NORMAL":48,
						"TEXCOORD_0":49,
						"TEXCOORD_1":50
					},
					"indices":51,
					"material":8
				}
			]
		},
		{
			"name":"skin_Lens_0",
			"primitives":[
				{
					"attributes":{
						"POSITION":52,
						"NORMAL":53,
						"TEXCOORD_0":54,
						"TEXCOORD_1":55
					},
					"indices":56,
					"material":9
				}
			]
		},
		{
			"name":"skin.outline_Outline_0",
			"primitives":[
				{
					"attributes":{
						"POSITION":57,
						"NORMAL":58,
						"TEXCOORD_0":59,
						"TEXCOORD_1":60
					},
					"indices":61,
					"material":3
				}
			]
		}
	],
	"textures":[
		{
			"sampler":0,
			"source":0
		},
		{
			"sampler":0,
			"source":1
		},
		{
			"sampler":0,
			"source":2
		},
		{
			"sampler":0,
			"source":3
		},
		{
			"sampler":0,
			"source":4
		},
		{
			"sampler":0,
			"source":5
		},
		{
			"sampler":0,
			"source":6
		},
		{
			"sampler":0,
			"source":7
		},
		{
			"sampler":0,
			"source":0
		}
	],
	"images":[
		{
			"mimeType":"image/png",
			"name":"Body_baseColor",
			"uri":"tex/Body_baseColor.png"
		},
		{
			"mimeType":"image/png",
			"name":"material_baseColor",
			"uri":"tex/material_baseColor.png"
		},
		{
			"mimeType":"image/png",
			"name":"Skin_baseColor",
			"uri":"tex/Skin_baseColor.png"
		},
		{
			"mimeType":"image/png",
			"name":"Hair2_baseColor",
			"uri":"tex/Hair2_baseColor.png"
		},
		{
			"mimeType":"image/png",
			"name":"Hair_baseColor",
			"uri":"tex/Hair_baseColor.png"
		},
		{
			"mimeType":"image/png",
			"name":"Body2_baseColor",
			"uri":"tex/Body2_baseColor.png"
		},
		{
			"mimeType":"image/png",
			"name":"Body2Shade_baseColor",
			"uri":"tex/Body2Shade_baseColor.png"
		},
		{
			"mimeType":"image/png",
			"name":"BosyShade_baseColor",
			"uri":"tex/BosyShade_baseColor.png"
		}
	],
	"accessors":[
		{
			"bufferView":0,
			"componentType":5126,
			"count":1473,
			"max":[
				-0.12900136411190033,
				0.3504173755645752,
				-0.10731732845306396
			],
			"min":[
				-0.1538100689649582,
				0.33478879928588867,
				-0.12446556240320206
			],
			"type":"VEC3"
		},
		{
			"bufferView":1,
			"componentType":5126,
			"count":1473,
			"type":"VEC3"
		},
		{
			"bufferView":2,
			"componentType":5126,
			"count":1473,
			"type":"VEC2"
		},
		{
			"bufferView":3,
			"componentType":5126,
			"count":1473,
			"type":"VEC2"
		},
		{
			"bufferView":4,
			"componentType":5123,
			"count":5664,
			"type":"SCALAR"
		},
		{
			"bufferView":5,
			"componentType":5126,
			"count":3047,
			"max":[
				-0.06289492547512054,
				0.42006802558898926,
				-0.023587096482515335
			],
			"min":[
				-0.1543625444173813,
				0.35926151275634766,
				-0.07488588243722916
			],
			"type":"VEC3"
		},
		{
			"bufferView":6,
			"componentType":5126,
			"count":3047,
			"type":"VEC3"
		},
		{
			"bufferView":7,
			"componentType":5126,
			"count":3047,
			"type":"VEC2"
		},
		{
			"bufferView":8,
			"componentType":5126,
			"count":3047,
			"type":"VEC2"
		},
		{
			"bufferView":9,
			"componentType":5123,
			"count":6768,
			"type":"SCALAR"
		},
		{
			"bufferView":10,
			"componentType":5126,
			"count":16542,
			"max":[
				-0.02190379798412323,
				0.48211240768432617,
				-0.009820535778999329
			],
			"min":[
				-0.18878547847270966,
				0.3194754123687744,
				-0.15266692638397217
			],
			"type":"VEC3"
		},
		{
			"bufferView":11,
			"componentType":5126,
			"count":16542,
			"type":"VEC3"
		},
		{
			"bufferView":12,
			"componentType":5126,
			"count":16542,
			"type":"VEC2"
		},
		{
			"bufferView":13,
			"componentType":5126,
			"count":16542,
			"type":"VEC2"
		},
		{
			"bufferView":14,
			"componentType":5123,
			"count":57372,
			"type":"SCALAR"
		},
		{
			"bufferView":15,
			"componentType":5126,
			"count":11252,
			"max":[
				-0.020975574851036072,
				0.4830591678619385,
				-0.009110882878303528
			],
			"min":[
				-0.18978534638881683,
				0.31865477561950684,
				-0.15365734696388245
			],
			"type":"VEC3"
		},
		{
			"bufferView":16,
			"componentType":5126,
			"count":11252,
			"type":"VEC3"
		},
		{
			"bufferView":17,
			"componentType":5126,
			"count":11252,
			"type":"VEC2"
		},
		{
			"bufferView":18,
			"componentType":5126,
			"count":11252,
			"type":"VEC2"
		},
		{
			"bufferView":19,
			"componentType":5123,
			"count":37056,
			"type":"SCALAR"
		},
		{
			"bufferView":20,
			"componentType":5126,
			"count":17854,
			"max":[
				0.07522274553775787,
				0.5549125671386719,
				-0.03780669718980789
			],
			"min":[
				-0.22794921696186066,
				0.27399349212646484,
				-0.22132107615470886
			],
			"type":"VEC3"
		},
		{
			"bufferView":21,
			"componentType":5126,
			"count":17854,
			"type":"VEC3"
		},
		{
			"bufferView":22,
			"componentType":5126,
			"count":17854,
			"type":"VEC2"
		},
		{
			"bufferView":23,
			"componentType":5123,
			"count":93072,
			"type":"SCALAR"
		},
		{
			"bufferView":24,
			"componentType":5126,
			"count":2122,
			"max":[
				-0.024589642882347107,
				0.5258300304412842,
				-0.008482608944177628
			],
			"min":[
				-0.20347557961940765,
				0.3246297836303711,
				-0.20743721723556519
			],
			"type":"VEC3"
		},
		{
			"bufferView":25,
			"componentType":5126,
			"count":2122,
			"type":"VEC3"
		},
		{
			"bufferView":26,
			"componentType":5126,
			"count":2122,
			"type":"VEC2"
		},
		{
			"bufferView":27,
			"componentType":5123,
			"count":9078,
			"type":"SCALAR"
		},
		{
			"bufferView":28,
			"componentType":5126,
			"count":19986,
			"max":[
				0.07606546580791473,
				0.5553416013717651,
				-0.007821772247552872
			],
			"min":[
				-0.22885285317897797,
				0.2730574607849121,
				-0.22226673364639282
			],
			"type":"VEC3"
		},
		{
			"bufferView":29,
			"componentType":5126,
			"count":19986,
			"type":"VEC3"
		},
		{
			"bufferView":30,
			"componentType":5126,
			"count":19986,
			"type":"VEC2"
		},
		{
			"bufferView":31,
			"componentType":5123,
			"count":102144,
			"type":"SCALAR"
		},
		{
			"bufferView":32,
			"componentType":5126,
			"count":7696,
			"max":[
				0.5779091715812683,
				0.19565534591674805,
				0.5528414249420166
			],
			"min":[
				-0.34269964694976807,
				-0.14755457639694214,
				-0.7069858908653259
			],
			"type":"VEC3"
		},
		{
			"bufferView":33,
			"componentType":5126,
			"count":7696,
			"type":"VEC3"
		},
		{
			"bufferView":34,
			"componentType":5126,
			"count":7696,
			"type":"VEC2"
		},
		{
			"bufferView":35,
			"componentType":5126,
			"count":7696,
			"type":"VEC2"
		},
		{
			"bufferView":36,
			"componentType":5123,
			"count":31032,
			"type":"SCALAR"
		},
		{
			"bufferView":37,
			"componentType":5126,
			"count":5957,
			"max":[
				0.5779091715812683,
				0.19477713108062744,
				0.09309741109609604
			],
			"min":[
				-0.34142130613327026,
				-0.1520267128944397,
				-0.7064052224159241
			],
			"type":"VEC3"
		},
		{
			"bufferView":38,
			"componentType":5126,
			"count":5957,
			"type":"VEC3"
		},
		{
			"bufferView":39,
			"componentType":5126,
			"count":5957,
			"type":"VEC2"
		},
		{
			"bufferView":40,
			"componentType":5126,
			"count":5957,
			"type":"VEC2"
		},
		{
			"bufferView":41,
			"componentType":5123,
			"count":23052,
			"type":"SCALAR"
		},
		{
			"bufferView":42,
			"componentType":5126,
			"count":29141,
			"max":[
				0.2427351027727127,
				0.5342578887939453,
				0.6241999268531799
			],
			"min":[
				-0.4201231598854065,
				-0.12238180637359619,
				-0.15315693616867065
			],
			"type":"VEC3"
		},
		{
			"bufferView":43,
			"componentType":5126,
			"count":29141,
			"type":"VEC3"
		},
		{
			"bufferView":44,
			"componentType":5126,
			"count":29141,
			"type":"VEC2"
		},
		{
			"bufferView":45,
			"componentType":5126,
			"count":29141,
			"type":"VEC2"
		},
		{
			"bufferView":46,
			"componentType":5123,
			"count":120690,
			"type":"SCALAR"
		},
		{
			"bufferView":47,
			"componentType":5126,
			"count":4289,
			"max":[
				0.0805211216211319,
				0.33344709873199463,
				0.4727512001991272
			],
			"min":[
				-0.4020580053329468,
				-0.06227761507034302,
				-0.1480303257703781
			],
			"type":"VEC3"
		},
		{
			"bufferView":48,
			"componentType":5126,
			"count":4289,
			"type":"VEC3"
		},
		{
			"bufferView":49,
			"componentType":5126,
			"count":4289,
			"type":"VEC2"
		},
		{
			"bufferView":50,
			"componentType":5126,
			"count":4289,
			"type":"VEC2"
		},
		{
			"bufferView":51,
			"componentType":5123,
			"count":14772,
			"type":"SCALAR"
		},
		{
			"bufferView":52,
			"componentType":5126,
			"count":509,
			"max":[
				-0.057280465960502625,
				0.5321518182754517,
				-0.044858988374471664
			],
			"min":[
				-0.1504717916250229,
				0.5044890642166138,
				-0.0871521383523941
			],
			"type":"VEC3"
		},
		{
			"bufferView":53,
			"componentType":5126,
			"count":509,
			"type":"VEC3"
		},
		{
			"bufferView":54,
			"componentType":5126,
			"count":509,
			"type":"VEC2"
		},
		{
			"bufferView":55,
			"componentType":5126,
			"count":509,
			"type":"VEC2"
		},
		{
			"bufferView":56,
			"componentType":5123,
			"count":1344,
			"type":"SCALAR"
		},
		{
			"bufferView":57,
			"componentType":5126,
			"count":46267,
			"max":[
				0.5797326564788818,
				0.5360797643661499,
				0.6261643767356873
			],
			"min":[
				-0.42210766673088074,
				-0.15381503105163574,
				-0.7085727453231812
			],
			"type":"VEC3"
		},
		{
			"bufferView":58,
			"componentType":5126,
			"count":46267,
			"type":"VEC3"
		},
		{
			"bufferView":59,
			"componentType":5126,
			"count":46267,
			"type":"VEC2"
		},
		{
			"bufferView":60,
			"componentType":5126,
			"count":46267,
			"type":"VEC2"
		},
		{
			"bufferView":61,
			"componentType":5123,
			"count":190890,
			"type":"SCALAR"
		}
	],
	"bufferViews":[
		{
			"buffer":0,
			"byteLength":17676,
			"byteOffset":0,
			"target":34962
		},
		{
			"buffer":0,
			"byteLength":17676,
			"byteOffset":17676,
			"target":34962
		},
		{
			"buffer":0,
			"byteLength":11784,
			"byteOffset":35352,
			"target":34962
		},
		{
			"buffer":0,
			"byteLength":11784,
			"byteOffset":47136,
			"target":34962
		},
		{
			"buffer":0,
			"byteLength":11328,
			"byteOffset":58920,
			"target":34963
		},
		{
			"buffer":0,
			"byteLength":36564,
			"byteOffset":70248,
			"target":34962
		},
		{
			"buffer":0,
			"byteLength":36564,
			"byteOffset":106812,
			"target":34962
		},
		{
			"buffer":0,
			"byteLength":24376,
			"byteOffset":143376,
			"target":34962
		},
		{
			"buffer":0,
			"byteLength":24376,
			"byteOffset":167752,
			"target":34962
		},
		{
			"buffer":0,
			"byteLength":13536,
			"byteOffset":192128,
			"target":34963
		},
		{
			"buffer":0,
			"byteLength":198504,
			"byteOffset":205664,
			"target":34962
		},
		{
			"buffer":0,
			"byteLength":198504,
			"byteOffset":404168,
			"target":34962
		},
		{
			"buffer":0,
			"byteLength":132336,
			"byteOffset":602672,
			"target":34962
		},
		{
			"buffer":0,
			"byteLength":132336,
			"byteOffset":735008,
			"target":34962
		},
		{
			"buffer":0,
			"byteLength":114744,
			"byteOffset":867344,
			"target":34963
		},
		{
			"buffer":0,
			"byteLength":135024,
			"byteOffset":982088,
			"target":34962
		},
		{
			"buffer":0,
			"byteLength":135024,
			"byteOffset":1117112,
			"target":34962
		},
		{
			"buffer":0,
			"byteLength":90016,
			"byteOffset":1252136,
			"target":34962
		},
		{
			"buffer":0,
			"byteLength":90016,
			"byteOffset":1342152,
			"target":34962
		},
		{
			"buffer":0,
			"byteLength":74112,
			"byteOffset":1432168,
			"target":34963
		},
		{
			"buffer":0,
			"byteLength":214248,
			"byteOffset":1506280,
			"target":34962
		},
		{
			"buffer":0,
			"byteLength":214248,
			"byteOffset":1720528,
			"target":34962
		},
		{
			"buffer":0,
			"byteLength":142832,
			"byteOffset":1934776,
			"target":34962
		},
		{
			"buffer":0,
			"byteLength":186144,
			"byteOffset":2077608,
			"target":34963
		},
		{
			"buffer":0,
			"byteLength":25464,
			"byteOffset":2263752,
			"target":34962
		},
		{
			"buffer":0,
			"byteLength":25464,
			"byteOffset":2289216,
			"target":34962
		},
		{
			"buffer":0,
			"byteLength":16976,
			"byteOffset":2314680,
			"target":34962
		},
		{
			"buffer":0,
			"byteLength":18156,
			"byteOffset":2331656,
			"target":34963
		},
		{
			"buffer":0,
			"byteLength":239832,
			"byteOffset":2349812,
			"target":34962
		},
		{
			"buffer":0,
			"byteLength":239832,
			"byteOffset":2589644,
			"target":34962
		},
		{
			"buffer":0,
			"byteLength":159888,
			"byteOffset":2829476,
			"target":34962
		},
		{
			"buffer":0,
			"byteLength":204288,
			"byteOffset":2989364,
			"target":34963
		},
		{
			"buffer":0,
			"byteLength":92352,
			"byteOffset":3193652,
			"target":34962
		},
		{
			"buffer":0,
			"byteLength":92352,
			"byteOffset":3286004,
			"target":34962
		},
		{
			"buffer":0,
			"byteLength":61568,
			"byteOffset":3378356,
			"target":34962
		},
		{
			"buffer":0,
			"byteLength":61568,
			"byteOffset":3439924,
			"target":34962
		},
		{
			"buffer":0,
			"byteLength":62064,
			"byteOffset":3501492,
			"target":34963
		},
		{
			"buffer":0,
			"byteLength":71484,
			"byteOffset":3563556,
			"target":34962
		},
		{
			"buffer":0,
			"byteLength":71484,
			"byteOffset":3635040,
			"target":34962
		},
		{
			"buffer":0,
			"byteLength":47656,
			"byteOffset":3706524,
			"target":34962
		},
		{
			"buffer":0,
			"byteLength":47656,
			"byteOffset":3754180,
			"target":34962
		},
		{
			"buffer":0,
			"byteLength":46104,
			"byteOffset":3801836,
			"target":34963
		},
		{
			"buffer":0,
			"byteLength":349692,
			"byteOffset":3847940,
			"target":34962
		},
		{
			"buffer":0,
			"byteLength":349692,
			"byteOffset":4197632,
			"target":34962
		},
		{
			"buffer":0,
			"byteLength":233128,
			"byteOffset":4547324,
			"target":34962
		},
		{
			"buffer":0,
			"byteLength":233128,
			"byteOffset":4780452,
			"target":34962
		},
		{
			"buffer":0,
			"byteLength":241380,
			"byteOffset":5013580,
			"target":34963
		},
		{
			"buffer":0,
			"byteLength":51468,
			"byteOffset":5254960,
			"target":34962
		},
		{
			"buffer":0,
			"byteLength":51468,
			"byteOffset":5306428,
			"target":34962
		},
		{
			"buffer":0,
			"byteLength":34312,
			"byteOffset":5357896,
			"target":34962
		},
		{
			"buffer":0,
			"byteLength":34312,
			"byteOffset":5392208,
			"target":34962
		},
		{
			"buffer":0,
			"byteLength":29544,
			"byteOffset":5426520,
			"target":34963
		},
		{
			"buffer":0,
			"byteLength":6108,
			"byteOffset":5456064,
			"target":34962
		},
		{
			"buffer":0,
			"byteLength":6108,
			"byteOffset":5462172,
			"target":34962
		},
		{
			"buffer":0,
			"byteLength":4072,
			"byteOffset":5468280,
			"target":34962
		},
		{
			"buffer":0,
			"byteLength":4072,
			"byteOffset":5472352,
			"target":34962
		},
		{
			"buffer":0,
			"byteLength":2688,
			"byteOffset":5476424,
			"target":34963
		},
		{
			"buffer":0,
			"byteLength":555204,
			"byteOffset":5479112,
			"target":34962
		},
		{
			"buffer":0,
			"byteLength":555204,
			"byteOffset":6034316,
			"target":34962
		},
		{
			"buffer":0,
			"byteLength":370136,
			"byteOffset":6589520,
			"target":34962
		},
		{
			"buffer":0,
			"byteLength":370136,
			"byteOffset":6959656,
			"target":34962
		},
		{
			"buffer":0,
			"byteLength":381780,
			"byteOffset":7329792,
			"target":34963
		}
	],
	"samplers":[
		{
			"magFilter":9729,
			"minFilter":9987
		}
	],
	"buffers":[
		{
			"byteLength":7711572,
			"uri":"anime.bin"
		}
	]
}
