{
	"asset":{
		"generator":"Khronos glTF Blender I/O v4.2.60",
		"version":"2.0"
	},
	"extensionsUsed":[
		"KHR_materials_unlit"
	],
	"scene":0,
	"scenes":[
		{
			"name":"Scene",
			"nodes":[
				21
			]
		}
	],
	"nodes":[
		{
			"mesh":0,
			"name":"Body_Body_0"
		},
		{
			"mesh":1,
			"name":"Body_Eye_0"
		},
		{
			"mesh":2,
			"name":"Body_Skin_0"
		},
		{
			"children":[
				0,
				1,
				2
			],
			"name":"Body"
		},
		{
			"mesh":3,
			"name":"Body.outline_Outline_0"
		},
		{
			"children":[
				4
			],
			"name":"Body.outline"
		},
		{
			"mesh":4,
			"name":"Hair_Hair2_0"
		},
		{
			"mesh":5,
			"name":"Hair_Hair_0"
		},
		{
			"children":[
				6,
				7
			],
			"name":"Hair"
		},
		{
			"mesh":6,
			"name":"Hair.outline_Outline_0"
		},
		{
			"children":[
				9
			],
			"name":"Hair.outline"
		},
		{
			"mesh":7,
			"name":"skin_Body2_0"
		},
		{
			"mesh":8,
			"name":"skin_Body2Shade_0"
		},
		{
			"mesh":9,
			"name":"skin_Body_0"
		},
		{
			"mesh":10,
			"name":"skin_BosyShade_0"
		},
		{
			"mesh":11,
			"name":"skin_Lens_0"
		},
		{
			"children":[
				11,
				12,
				13,
				14,
				15
			],
			"name":"skin"
		},
		{
			"mesh":12,
			"name":"skin.outline_Outline_0"
		},
		{
			"children":[
				17
			],
			"name":"skin.outline"
		},
		{
			"children":[
				3,
				5,
				8,
				10,
				16,
				18
			],
			"name":"RootNode"
		},
		{
			"children":[
				19
			],
			"name":"df157774cd6a4f048c26da049f0de100.fbx",
			"translation":[
				0,
				-0.5600000023841858,
				0
			]
		},
		{
			"children":[
				20
			],
			"name":"Sketchfab_model"
		}
	],
	"materials":[
		{
			"doubleSided":true,
			"extensions":{
				"KHR_materials_unlit":{}
			},
			"name":"Body",
			"pbrMetallicRoughness":{
				"baseColorTexture":{
					"index":0
				},
				"metallicFactor":0,
				"roughnessFactor":0.9
			}
		},
		{
			"alphaMode":"BLEND",
			"doubleSided":true,
			"extensions":{
				"KHR_materials_unlit":{}
			},
			"name":"material",
			"pbrMetallicRoughness":{
				"baseColorTexture":{
					"index":1
				},
				"metallicFactor":0,
				"roughnessFactor":0.9
			}
		},
		{
			"doubleSided":true,
			"extensions":{
				"KHR_materials_unlit":{}
			},
			"name":"Skin",
			"pbrMetallicRoughness":{
				"baseColorTexture":{
					"index":2
				},
				"metallicFactor":0,
				"roughnessFactor":0.9
			}
		},
		{
			"extensions":{
				"KHR_materials_unlit":{}
			},
			"name":"Outline",
			"pbrMetallicRoughness":{
				"baseColorFactor":[
					0,
					0,
					0,
					1
				],
				"metallicFactor":0,
				"roughnessFactor":0.9
			}
		},
		{
			"doubleSided":true,
			"extensions":{
				"KHR_materials_unlit":{}
			},
			"name":"Hair2",
			"pbrMetallicRoughness":{
				"baseColorTexture":{
					"index":3
				},
				"metallicFactor":0,
				"roughnessFactor":0.9
			}
		},
		{
			"doubleSided":true,
			"extensions":{
				"KHR_materials_unlit":{}
			},
			"name":"Hair",
			"pbrMetallicRoughness":{
				"baseColorTexture":{
					"index":4
				},
				"metallicFactor":0,
				"roughnessFactor":0.9
			}
		},
		{
			"doubleSided":true,
			"extensions":{
				"KHR_materials_unlit":{}
			},
			"name":"Body2",
			"pbrMetallicRoughness":{
				"baseColorTexture":{
					"index":5
				},
				"metallicFactor":0,
				"roughnessFactor":0.9
			}
		},
		{
			"doubleSided":true,
			"extensions":{
				"KHR_materials_unlit":{}
			},
			"name":"Body2Shade",
			"pbrMetallicRoughness":{
				"baseColorTexture":{
					"index":6
				},
				"metallicFactor":0,
				"roughnessFactor":0.9
			}
		},
		{
			"doubleSided":true,
			"extensions":{
				"KHR_materials_unlit":{}
			},
			"name":"BosyShade",
			"pbrMetallicRoughness":{
				"baseColorTexture":{
					"index":7
				},
				"metallicFactor":0,
				"roughnessFactor":0.9
			}
		},
		{
			"doubleSided":true,
			"extensions":{
				"KHR_materials_unlit":{}
			},
			"name":"Lens",
			"pbrMetallicRoughness":{
				"baseColorTexture":{
					"index":8
				},
				"metallicFactor":0,
				"roughnessFactor":0.9
			}
		}
	],
	"meshes":[
		{
			"name":"Body_Body_0",
			"primitives":[
				{
					"attributes":{
						"POSITION":0,
						"NORMAL":1,
						"TEXCOORD_0":2,
						"TEXCOORD_1":3
					},
					"indices":4,
					"material":0
				}
			]
		},
		{
			"name":"Body_Eye_0",
			"primitives":[
				{
					"attributes":{
						"POSITION":5,
						"NORMAL":6,
						"TEXCOORD_0":7,
						"TEXCOORD_1":8
					},
					"indices":9,
					"material":1
				}
			]
		},
		{
			"name":"Body_Skin_0",
			"primitives":[
				{
					"attributes":{
						"POSITION":10,
						"NORMAL":11,
						"TEXCOORD_0":12,
						"TEXCOORD_1":13
					},
					"indices":14,
					"material":2
				}
			]
		},
		{
			"name":"Body.outline_Outline_0",
			"primitives":[
				{
					"attributes":{
						"POSITION":15,
						"NORMAL":16,
						"TEXCOORD_0":17,
						"TEXCOORD_1":18
					},
					"indices":19,
					"material":3
				}
			]
		},
		{
			"name":"Hair_Hair2_0",
			"primitives":[
				{
					"attributes":{
						"POSITION":20,
						"NORMAL":21,
						"TEXCOORD_0":22
					},
					"indices":23,
					"material":4
				}
			]
		},
		{
			"name":"Hair_Hair_0",
			"primitives":[
				{
					"attributes":{
						"POSITION":24,
						"NORMAL":25,
						"TEXCOORD_0":26
					},
					"indices":27,
					"material":5
				}
			]
		},
		{
			"name":"Hair.outline_Outline_0",
			"primitives":[
				{
					"attributes":{
						"POSITION":28,
						"NORMAL":29,
						"TEXCOORD_0":30
					},
					"indices":31,
					"material":3
				}
			]
		},
		{
			"name":"skin_Body2_0",
			"primitives":[
				{
					"attributes":{
						"POSITION":32,
						"NORMAL":33,
						"TEXCOORD_0":34,
						"TEXCOORD_1":35
					},
					"indices":36,
					"material":6
				}
			]
		},
		{
			"name":"skin_Body2Shade_0",
			"primitives":[
				{
					"attributes":{
						"POSITION":37,
						"NORMAL":38,
						"TEXCOORD_0":39,
						"TEXCOORD_1":40
					},
					"indices":41,
					"material":7
				}
			]
		},
		{
			"name":"skin_Body_0",
			"primitives":[
				{
					"attributes":{
						"POSITION":42,
						"NORMAL":43,
						"TEXCOORD_0":44,
						"TEXCOORD_1":45
					},
					"indices":46,
					"material":0
				}
			]
		},
		{
			"name":"skin_BosyShade_0",
			"primitives":[
				{
					"attributes":{
						"POSITION":47,
						"NORMAL":48,
						"TEXCOORD_0":49,
						"TEXCOORD_1":50
					},
					"indices":51,
					"material":8
				}
			]
		},
		{
			"name":"skin_Lens_0",
			"primitives":[
				{
					"attributes":{
						"POSITION":52,
						"NORMAL":53,
						"TEXCOORD_0":54,
						"TEXCOORD_1":55
					},
					"indices":56,
					"material":9
				}
			]
		},
		{
			"name":"skin.outline_Outline_0",
			"primitives":[
				{
					"attributes":{
						"POSITION":57,
						"NORMAL":58,
						"TEXCOORD_0":59,
						"TEXCOORD_1":60
					},
					"indices":61,
					"material":3
				}
			]
		}
	],
	"textures":[
		{
			"sampler":0,
			"source":0
		},
		{
			"sampler":0,
			"source":1
		},
		{
			"sampler":0,
			"source":2
		},
		{
			"sampler":0,
			"source":3
		},
		{
			"sampler":0,
			"source":4
		},
		{
			"sampler":0,
			"source":5
		},
		{
			"sampler":0,
			"source":6
		},
		{
			"sampler":0,
			"source":7
		},
		{
			"sampler":0,
			"source":0
		}
	],
	"images":[
		{
			"mimeType":"image/png",
			"name":"Body_baseColor",
			"uri":"tex/Body_baseColor.png"
		},
		{
			"mimeType":"image/png",
			"name":"material_baseColor",
			"uri":"tex/material_baseColor.png"
		},
		{
			"mimeType":"image/png",
			"name":"Skin_baseColor",
			"uri":"tex/Skin_baseColor.png"
		},
		{
			"mimeType":"image/png",
			"name":"Hair2_baseColor",
			"uri":"tex/Hair2_baseColor.png"
		},
		{
			"mimeType":"image/png",
			"name":"Hair_baseColor",
			"uri":"tex/Hair_baseColor.png"
		},
		{
			"mimeType":"image/png",
			"name":"Body2_baseColor",
			"uri":"tex/Body2_baseColor.png"
		},
		{
			"mimeType":"image/png",
			"name":"Body2Shade_baseColor",
			"uri":"tex/Body2Shade_baseColor.png"
		},
		{
			"mimeType":"image/png",
			"name":"BosyShade_baseColor",
			"uri":"tex/BosyShade_baseColor.png"
		}
	],
	"accessors":[
		{
			"bufferView":0,
			"componentType":5126,
			"count":1440,
			"max":[
				-0.06700128316879272,
				1.0995657444000244,
				-0.040670089423656464
			],
			"min":[
				-0.09180998802185059,
				1.083937168121338,
				-0.057818323373794556
			],
			"type":"VEC3"
		},
		{
			"bufferView":1,
			"componentType":5126,
			"count":1440,
			"type":"VEC3"
		},
		{
			"bufferView":2,
			"componentType":5126,
			"count":1440,
			"type":"VEC2"
		},
		{
			"bufferView":3,
			"componentType":5126,
			"count":1440,
			"type":"VEC2"
		},
		{
			"bufferView":4,
			"componentType":5123,
			"count":5664,
			"type":"SCALAR"
		},
		{
			"bufferView":5,
			"componentType":5126,
			"count":2987,
			"max":[
				-0.0008948445320129395,
				1.1692163944244385,
				0.043060142546892166
			],
			"min":[
				-0.09236246347427368,
				1.1084098815917969,
				-0.008238643407821655
			],
			"type":"VEC3"
		},
		{
			"bufferView":6,
			"componentType":5126,
			"count":2987,
			"type":"VEC3"
		},
		{
			"bufferView":7,
			"componentType":5126,
			"count":2987,
			"type":"VEC2"
		},
		{
			"bufferView":8,
			"componentType":5126,
			"count":2987,
			"type":"VEC2"
		},
		{
			"bufferView":9,
			"componentType":5123,
			"count":6768,
			"type":"SCALAR"
		},
		{
			"bufferView":10,
			"componentType":5126,
			"count":16202,
			"max":[
				0.040096282958984375,
				1.2312607765197754,
				0.05682670325040817
			],
			"min":[
				-0.12678539752960205,
				1.0686237812042236,
				-0.08601967990398407
			],
			"type":"VEC3"
		},
		{
			"bufferView":11,
			"componentType":5126,
			"count":16202,
			"type":"VEC3"
		},
		{
			"bufferView":12,
			"componentType":5126,
			"count":16202,
			"type":"VEC2"
		},
		{
			"bufferView":13,
			"componentType":5126,
			"count":16202,
			"type":"VEC2"
		},
		{
			"bufferView":14,
			"componentType":5123,
			"count":57372,
			"type":"SCALAR"
		},
		{
			"bufferView":15,
			"componentType":5126,
			"count":11025,
			"max":[
				0.04102450609207153,
				1.2322075366973877,
				0.05753635615110397
			],
			"min":[
				-0.12778526544570923,
				1.067803144454956,
				-0.08701011538505554
			],
			"type":"VEC3"
		},
		{
			"bufferView":16,
			"componentType":5126,
			"count":11025,
			"type":"VEC3"
		},
		{
			"bufferView":17,
			"componentType":5126,
			"count":11025,
			"type":"VEC2"
		},
		{
			"bufferView":18,
			"componentType":5126,
			"count":11025,
			"type":"VEC2"
		},
		{
			"bufferView":19,
			"componentType":5123,
			"count":37056,
			"type":"SCALAR"
		},
		{
			"bufferView":20,
			"componentType":5126,
			"count":17854,
			"max":[
				0.13722282648086548,
				1.304060935974121,
				0.02884054183959961
			],
			"min":[
				-0.16594913601875305,
				1.023141860961914,
				-0.15467384457588196
			],
			"type":"VEC3"
		},
		{
			"bufferView":21,
			"componentType":5126,
			"count":17854,
			"type":"VEC3"
		},
		{
			"bufferView":22,
			"componentType":5126,
			"count":17854,
			"type":"VEC2"
		},
		{
			"bufferView":23,
			"componentType":5123,
			"count":93072,
			"type":"SCALAR"
		},
		{
			"bufferView":24,
			"componentType":5126,
			"count":2121,
			"max":[
				0.0374104380607605,
				1.2749783992767334,
				0.058164630085229874
			],
			"min":[
				-0.14147549867630005,
				1.0737781524658203,
				-0.1407899707555771
			],
			"type":"VEC3"
		},
		{
			"bufferView":25,
			"componentType":5126,
			"count":2121,
			"type":"VEC3"
		},
		{
			"bufferView":26,
			"componentType":5126,
			"count":2121,
			"type":"VEC2"
		},
		{
			"bufferView":27,
			"componentType":5123,
			"count":9078,
			"type":"SCALAR"
		},
		{
			"bufferView":28,
			"componentType":5126,
			"count":19984,
			"max":[
				0.13806554675102234,
				1.3044899702072144,
				0.05882546678185463
			],
			"min":[
				-0.16685277223587036,
				1.0222058296203613,
				-0.15561950206756592
			],
			"type":"VEC3"
		},
		{
			"bufferView":29,
			"componentType":5126,
			"count":19984,
			"type":"VEC3"
		},
		{
			"bufferView":30,
			"componentType":5126,
			"count":19984,
			"type":"VEC2"
		},
		{
			"bufferView":31,
			"componentType":5123,
			"count":102144,
			"type":"SCALAR"
		},
		{
			"bufferView":32,
			"componentType":5126,
			"count":7652,
			"max":[
				0.6399092674255371,
				0.9448037147521973,
				0.6194886565208435
			],
			"min":[
				-0.28069958090782166,
				0.6015937924385071,
				-0.640338659286499
			],
			"type":"VEC3"
		},
		{
			"bufferView":33,
			"componentType":5126,
			"count":7652,
			"type":"VEC3"
		},
		{
			"bufferView":34,
			"componentType":5126,
			"count":7652,
			"type":"VEC2"
		},
		{
			"bufferView":35,
			"componentType":5126,
			"count":7652,
			"type":"VEC2"
		},
		{
			"bufferView":36,
			"componentType":5123,
			"count":31032,
			"type":"SCALAR"
		},
		{
			"bufferView":37,
			"componentType":5126,
			"count":5914,
			"max":[
				0.6399092674255371,
				0.9439254999160767,
				0.15974465012550354
			],
			"min":[
				-0.27942121028900146,
				0.5971216559410095,
				-0.6397579908370972
			],
			"type":"VEC3"
		},
		{
			"bufferView":38,
			"componentType":5126,
			"count":5914,
			"type":"VEC3"
		},
		{
			"bufferView":39,
			"componentType":5126,
			"count":5914,
			"type":"VEC2"
		},
		{
			"bufferView":40,
			"componentType":5126,
			"count":5914,
			"type":"VEC2"
		},
		{
			"bufferView":41,
			"componentType":5123,
			"count":23052,
			"type":"SCALAR"
		},
		{
			"bufferView":42,
			"componentType":5126,
			"count":28919,
			"max":[
				0.3047351837158203,
				1.2834062576293945,
				0.6908471584320068
			],
			"min":[
				-0.3581230640411377,
				0.626766562461853,
				-0.08650970458984375
			],
			"type":"VEC3"
		},
		{
			"bufferView":43,
			"componentType":5126,
			"count":28919,
			"type":"VEC3"
		},
		{
			"bufferView":44,
			"componentType":5126,
			"count":28919,
			"type":"VEC2"
		},
		{
			"bufferView":45,
			"componentType":5126,
			"count":28919,
			"type":"VEC2"
		},
		{
			"bufferView":46,
			"componentType":5123,
			"count":120690,
			"type":"SCALAR"
		},
		{
			"bufferView":47,
			"componentType":5126,
			"count":4210,
			"max":[
				0.1425212025642395,
				1.0825954675674438,
				0.5393984317779541
			],
			"min":[
				-0.340057909488678,
				0.6868707537651062,
				-0.08138308674097061
			],
			"type":"VEC3"
		},
		{
			"bufferView":48,
			"componentType":5126,
			"count":4210,
			"type":"VEC3"
		},
		{
			"bufferView":49,
			"componentType":5126,
			"count":4210,
			"type":"VEC2"
		},
		{
			"bufferView":50,
			"componentType":5126,
			"count":4210,
			"type":"VEC2"
		},
		{
			"bufferView":51,
			"componentType":5123,
			"count":14772,
			"type":"SCALAR"
		},
		{
			"bufferView":52,
			"componentType":5126,
			"count":485,
			"max":[
				0.0047196149826049805,
				1.2813001871109009,
				0.021788250654935837
			],
			"min":[
				-0.08847171068191528,
				1.253637433052063,
				-0.0205049030482769
			],
			"type":"VEC3"
		},
		{
			"bufferView":53,
			"componentType":5126,
			"count":485,
			"type":"VEC3"
		},
		{
			"bufferView":54,
			"componentType":5126,
			"count":485,
			"type":"VEC2"
		},
		{
			"bufferView":55,
			"componentType":5126,
			"count":485,
			"type":"VEC2"
		},
		{
			"bufferView":56,
			"componentType":5123,
			"count":1344,
			"type":"SCALAR"
		},
		{
			"bufferView":57,
			"componentType":5126,
			"count":45889,
			"max":[
				0.6417327523231506,
				1.2852281332015991,
				0.6928116083145142
			],
			"min":[
				-0.3601076006889343,
				0.5953333377838135,
				-0.6419255137443542
			],
			"type":"VEC3"
		},
		{
			"bufferView":58,
			"componentType":5126,
			"count":45889,
			"type":"VEC3"
		},
		{
			"bufferView":59,
			"componentType":5126,
			"count":45889,
			"type":"VEC2"
		},
		{
			"bufferView":60,
			"componentType":5126,
			"count":45889,
			"type":"VEC2"
		},
		{
			"bufferView":61,
			"componentType":5123,
			"count":190890,
			"type":"SCALAR"
		}
	],
	"bufferViews":[
		{
			"buffer":0,
			"byteLength":17280,
			"byteOffset":0,
			"target":34962
		},
		{
			"buffer":0,
			"byteLength":17280,
			"byteOffset":17280,
			"target":34962
		},
		{
			"buffer":0,
			"byteLength":11520,
			"byteOffset":34560,
			"target":34962
		},
		{
			"buffer":0,
			"byteLength":11520,
			"byteOffset":46080,
			"target":34962
		},
		{
			"buffer":0,
			"byteLength":11328,
			"byteOffset":57600,
			"target":34963
		},
		{
			"buffer":0,
			"byteLength":35844,
			"byteOffset":68928,
			"target":34962
		},
		{
			"buffer":0,
			"byteLength":35844,
			"byteOffset":104772,
			"target":34962
		},
		{
			"buffer":0,
			"byteLength":23896,
			"byteOffset":140616,
			"target":34962
		},
		{
			"buffer":0,
			"byteLength":23896,
			"byteOffset":164512,
			"target":34962
		},
		{
			"buffer":0,
			"byteLength":13536,
			"byteOffset":188408,
			"target":34963
		},
		{
			"buffer":0,
			"byteLength":194424,
			"byteOffset":201944,
			"target":34962
		},
		{
			"buffer":0,
			"byteLength":194424,
			"byteOffset":396368,
			"target":34962
		},
		{
			"buffer":0,
			"byteLength":129616,
			"byteOffset":590792,
			"target":34962
		},
		{
			"buffer":0,
			"byteLength":129616,
			"byteOffset":720408,
			"target":34962
		},
		{
			"buffer":0,
			"byteLength":114744,
			"byteOffset":850024,
			"target":34963
		},
		{
			"buffer":0,
			"byteLength":132300,
			"byteOffset":964768,
			"target":34962
		},
		{
			"buffer":0,
			"byteLength":132300,
			"byteOffset":1097068,
			"target":34962
		},
		{
			"buffer":0,
			"byteLength":88200,
			"byteOffset":1229368,
			"target":34962
		},
		{
			"buffer":0,
			"byteLength":88200,
			"byteOffset":1317568,
			"target":34962
		},
		{
			"buffer":0,
			"byteLength":74112,
			"byteOffset":1405768,
			"target":34963
		},
		{
			"buffer":0,
			"byteLength":214248,
			"byteOffset":1479880,
			"target":34962
		},
		{
			"buffer":0,
			"byteLength":214248,
			"byteOffset":1694128,
			"target":34962
		},
		{
			"buffer":0,
			"byteLength":142832,
			"byteOffset":1908376,
			"target":34962
		},
		{
			"buffer":0,
			"byteLength":186144,
			"byteOffset":2051208,
			"target":34963
		},
		{
			"buffer":0,
			"byteLength":25452,
			"byteOffset":2237352,
			"target":34962
		},
		{
			"buffer":0,
			"byteLength":25452,
			"byteOffset":2262804,
			"target":34962
		},
		{
			"buffer":0,
			"byteLength":16968,
			"byteOffset":2288256,
			"target":34962
		},
		{
			"buffer":0,
			"byteLength":18156,
			"byteOffset":2305224,
			"target":34963
		},
		{
			"buffer":0,
			"byteLength":239808,
			"byteOffset":2323380,
			"target":34962
		},
		{
			"buffer":0,
			"byteLength":239808,
			"byteOffset":2563188,
			"target":34962
		},
		{
			"buffer":0,
			"byteLength":159872,
			"byteOffset":2802996,
			"target":34962
		},
		{
			"buffer":0,
			"byteLength":204288,
			"byteOffset":2962868,
			"target":34963
		},
		{
			"buffer":0,
			"byteLength":91824,
			"byteOffset":3167156,
			"target":34962
		},
		{
			"buffer":0,
			"byteLength":91824,
			"byteOffset":3258980,
			"target":34962
		},
		{
			"buffer":0,
			"byteLength":61216,
			"byteOffset":3350804,
			"target":34962
		},
		{
			"buffer":0,
			"byteLength":61216,
			"byteOffset":3412020,
			"target":34962
		},
		{
			"buffer":0,
			"byteLength":62064,
			"byteOffset":3473236,
			"target":34963
		},
		{
			"buffer":0,
			"byteLength":70968,
			"byteOffset":3535300,
			"target":34962
		},
		{
			"buffer":0,
			"byteLength":70968,
			"byteOffset":3606268,
			"target":34962
		},
		{
			"buffer":0,
			"byteLength":47312,
			"byteOffset":3677236,
			"target":34962
		},
		{
			"buffer":0,
			"byteLength":47312,
			"byteOffset":3724548,
			"target":34962
		},
		{
			"buffer":0,
			"byteLength":46104,
			"byteOffset":3771860,
			"target":34963
		},
		{
			"buffer":0,
			"byteLength":347028,
			"byteOffset":3817964,
			"target":34962
		},
		{
			"buffer":0,
			"byteLength":347028,
			"byteOffset":4164992,
			"target":34962
		},
		{
			"buffer":0,
			"byteLength":231352,
			"byteOffset":4512020,
			"target":34962
		},
		{
			"buffer":0,
			"byteLength":231352,
			"byteOffset":4743372,
			"target":34962
		},
		{
			"buffer":0,
			"byteLength":241380,
			"byteOffset":4974724,
			"target":34963
		},
		{
			"buffer":0,
			"byteLength":50520,
			"byteOffset":5216104,
			"target":34962
		},
		{
			"buffer":0,
			"byteLength":50520,
			"byteOffset":5266624,
			"target":34962
		},
		{
			"buffer":0,
			"byteLength":33680,
			"byteOffset":5317144,
			"target":34962
		},
		{
			"buffer":0,
			"byteLength":33680,
			"byteOffset":5350824,
			"target":34962
		},
		{
			"buffer":0,
			"byteLength":29544,
			"byteOffset":5384504,
			"target":34963
		},
		{
			"buffer":0,
			"byteLength":5820,
			"byteOffset":5414048,
			"target":34962
		},
		{
			"buffer":0,
			"byteLength":5820,
			"byteOffset":5419868,
			"target":34962
		},
		{
			"buffer":0,
			"byteLength":3880,
			"byteOffset":5425688,
			"target":34962
		},
		{
			"buffer":0,
			"byteLength":3880,
			"byteOffset":5429568,
			"target":34962
		},
		{
			"buffer":0,
			"byteLength":2688,
			"byteOffset":5433448,
			"target":34963
		},
		{
			"buffer":0,
			"byteLength":550668,
			"byteOffset":5436136,
			"target":34962
		},
		{
			"buffer":0,
			"byteLength":550668,
			"byteOffset":5986804,
			"target":34962
		},
		{
			"buffer":0,
			"byteLength":367112,
			"byteOffset":6537472,
			"target":34962
		},
		{
			"buffer":0,
			"byteLength":367112,
			"byteOffset":6904584,
			"target":34962
		},
		{
			"buffer":0,
			"byteLength":381780,
			"byteOffset":7271696,
			"target":34963
		}
	],
	"samplers":[
		{
			"magFilter":9729,
			"minFilter":9987
		}
	],
	"buffers":[
		{
			"byteLength":7653476,
			"uri":"anime.bin"
		}
	]
}
